<svg xmlns="http://www.w3.org/2000/svg" version="1.1" xmlns:xlink="http://www.w3.org/1999/xlink" xmlns:svgjs="http://svgjs.dev/svgjs" viewBox="0 0 800 800"><g transform="matrix(1,0,0,1,0,0)"><path d="M682.0370118218505 655.6884182348517C683.2517089064894 654.9872388576167 684.7482910935106 654.9872388576167 685.9629881781495 655.6886145336696L707.537013451284 668.1443634204817C708.7517105359229 668.8455427977167 709.5000016294335 670.1417038917489 709.5000016294335 671.5442589450366V696.455756718661C709.5000016294335 697.8583117719488 708.7517105359229 699.154472865981 707.537013451284 699.8558485420338L685.9629881781495 712.311597428846C684.7482910935106 713.0127768060809 683.2517089064894 713.0127768060809 682.0370118218505 712.3114011300281L660.462986548716 699.8556522432159C659.2482894640771 699.154472865981 658.4999983705665 697.8583117719488 658.4999983705665 696.455756718661V671.5442589450366C658.4999983705665 670.1417038917489 659.2482894640771 668.8455427977167 660.462986548716 668.1441671216639L682.0370118218505 655.6884182348517Z " stroke-width="2" stroke="#ffffff" fill="none" opacity="0.01" transform="rotate(100, 400, 400)"></path><path d="M655.3475627245843 617.3041241821121C657.1014034350255 616.2917261508103 659.2622440259117 616.2917261508103 661.016084736353 617.3044076082127L692.1657468954243 635.2886439688506C693.9195876058654 636.3010420001525 695.0000079013085 638.172504542338 695.0000079013085 640.1975840310422V676.166056752318C695.0000079013085 678.1911362410224 693.9195876058654 680.0625987832078 692.1657468954243 681.0752802406103L661.016084736353 699.0595166012481C659.2622440259117 700.07191463255 657.1014034350255 700.07191463255 655.3475627245843 699.0592331751476L624.1979005655132 681.0749968145096C622.4440598550719 680.0625987832078 621.3636395596288 678.1911362410224 621.3636395596288 676.166056752318V640.1975840310422C621.3636395596288 638.172504542338 622.4440598550719 636.3010420001525 624.1979005655132 635.2883605427501L655.3475627245843 617.3041241821121Z " stroke-width="3.2727272727272725" stroke="#f5f7ff" fill="none" opacity="0.09999999999999999" transform="rotate(90.9090909090909, 400, 400)"></path><path d="M628.6580983685293 578.9198453881618C630.9510827047728 577.596228702793 633.7761816995242 577.596228702793 636.0691660357676 578.9202159415452L676.7944650807756 602.4329397760087C679.0874494170191 603.7565564613774 680.4999989143946 606.2033204517162 680.4999989143946 608.850924375837V655.8763720447643C680.4999989143946 658.5239759688851 679.0874494170191 660.9707399592239 676.7944650807756 662.294727197976L636.0691660357676 685.8074510324395C633.7761816995242 687.1310677178084 630.9510827047728 687.1310677178084 628.6580983685293 685.8070804790563L587.9327993235214 662.2943566445927C585.6398149872779 660.9707399592239 584.2272654899023 658.5239759688851 584.2272654899023 655.8763720447643V608.850924375837C584.2272654899023 606.2033204517162 585.6398149872779 603.7565564613774 587.9327993235214 602.4325692226253L628.6580983685293 578.9198453881618Z " stroke-width="4.545454545454545" stroke="#ebefff" fill="none" opacity="0.19" transform="rotate(81.81818181818181, 400, 400)"></path><path d="M601.9686492712632 540.5355360766331C604.800777233309 538.9007007371974 608.2901346319253 538.9007007371974 611.1222625939711 540.5359937572993L661.4231985249157 569.5772050655885C664.2553264869616 571.2120404050243 666.0000051862696 574.2341058435162 666.0000051862696 577.5042342030536V635.5866568196323C666.0000051862696 638.8567851791697 664.2553264869616 641.8788506176617 661.4231985249157 643.5141436377635L611.1222625939711 672.5553549460527C608.2901346319253 674.1901902854884 604.800777233309 674.1901902854884 601.9686492712632 672.5548972653867L551.6677133403186 643.5136859570973C548.8355853782728 641.8788506176617 547.0909066789645 638.8567851791697 547.0909066789645 635.5866568196323V577.5042342030536C547.0909066789645 574.2341058435162 548.8355853782728 571.2120404050243 551.6677133403186 569.5767473849224L601.9686492712632 540.5355360766331Z " stroke-width="5.818181818181818" stroke="#e1e7ff" fill="none" opacity="0.28" transform="rotate(72.72727272727272, 400, 400)"></path><path d="M575.2791849152081 502.1512572826827C578.6504565030563 500.2052032891802 582.8040723055376 500.2052032891802 586.1753438933856 502.15180209063163L646.051916710267 536.7215008727467C649.4231882981152 538.6675548662491 651.4999961993558 542.2649217528945 651.4999961993558 546.1575745478484V615.2969721120785C651.4999961993558 619.1896249070325 649.4231882981152 622.7869917936778 646.051916710267 624.7335905951292L586.1753438933856 659.3032893772441C582.8040723055376 661.2493433707467 578.6504565030563 661.2493433707467 575.2791849152081 659.3027445692953L515.4026120983268 624.7330457871803C512.0313405104787 622.7869917936778 509.954532609238 619.1896249070325 509.954532609238 615.2969721120785V546.1575745478484C509.954532609238 542.2649217528945 512.0313405104787 538.6675548662491 515.4026120983268 536.7209560647977L575.2791849152081 502.1512572826827Z " stroke-width="7.090909090909091" stroke="#d5dfff" fill="none" opacity="0.37" transform="rotate(63.63636363636363, 400, 400)"></path><path d="M548.589735817942 463.7669708593377C552.5001510315924 461.5096982117683 557.3180252379387 461.5096982117683 561.2284404515892 463.76760279456937L630.6806501544072 503.8657890505101C634.5910653680576 506.1230616980795 637.0000024712308 510.2957300328781 637.0000024712308 514.8109072632486V595.0072797751301C637.0000024712308 599.5224570055005 634.5910653680576 603.6951253402991 630.6806501544072 605.9530299231002L561.2284404515892 646.0512161790409C557.3180252379387 648.3084888266103 552.5001510315924 648.3084888266103 548.589735817942 646.0505842438092L479.137526115124 605.9523979878686C475.22711090147357 603.6951253402991 472.8181737983004 599.5224570055005 472.8181737983004 595.0072797751301V514.8109072632486C472.8181737983004 510.2957300328781 475.22711090147357 506.1230616980795 479.137526115124 503.8651571152784L548.589735817942 463.7669708593377Z " stroke-width="8.363636363636363" stroke="#cad6ff" fill="none" opacity="0.45999999999999996" transform="rotate(54.54545454545454, 400, 400)"></path><path d="M521.9002867206759 425.38268443599276C526.3498455601288 422.8141931343565 531.8319781703401 422.8141931343565 536.2815370097928 425.3834034985072L615.3093835985476 471.01007722827364C619.7589424380003 473.57856852990994 622.5000087431059 478.3265383128618 622.5000087431059 483.46423997864883V574.7175874381818C622.5000087431059 579.8552891039687 619.7589424380003 584.6032588869207 615.3093835985476 587.1724692510713L536.2815370097928 632.7991429808378C531.8319781703401 635.3676342824741 526.3498455601288 635.3676342824741 521.9002867206759 632.7984239183234L442.8724401319213 587.1717501885569C438.42288129246856 584.6032588869207 435.6818149873629 579.8552891039687 435.6818149873629 574.7175874381818V483.46423997864883C435.6818149873629 478.3265383128618 438.42288129246856 473.57856852990994 442.8724401319213 471.00935816575924L521.9002867206759 425.38268443599276Z " stroke-width="9.636363636363637" stroke="#bdcdff" fill="none" opacity="0.55" transform="rotate(45.45454545454545, 400, 400)"></path><path d="M495.2108223646208 386.9983903832532C500.1995248298759 384.11868042755003 506.34591584395224 384.11868042755003 511.33461830920726 386.9991965730504L599.9381017838987 438.1543577766426C604.9268042491537 441.0340677323457 607.999999756192 446.35733896345096 607.999999756192 452.1175650646545V554.4278874718389C607.999999756192 560.1881135730423 604.9268042491537 565.5113848041476 599.9381017838987 568.391900949648L511.33461830920726 619.5470621532402C506.34591584395224 622.4267721089432 500.1995248298759 622.4267721089432 495.2108223646208 619.546255963443L406.6073388899294 568.3910947598507C401.6186364246744 565.5113848041476 398.54544091763614 560.1881135730423 398.54544091763614 554.4278874718389V452.1175650646545C398.54544091763614 446.35733896345096 401.6186364246744 441.0340677323457 406.6073388899294 438.15355158684537L495.2108223646208 386.9983903832532Z " stroke-width="10.909090909090908" stroke="#b0c3ff" fill="none" opacity="0.64" transform="rotate(36.36363636363636, 400, 400)"></path><path d="M468.5213732673548 348.6141192186973C474.0492193584122 345.4231906089273 480.85986877635355 345.4231906089273 486.38771486741086 348.61501253577734L584.566835228039 405.2986612131952C590.0946813190964 408.48958982296523 593.5000060280671 414.38816250222374 593.5000060280671 420.7709130388438V534.1382103936796C593.5000060280671 540.5209609302997 590.0946813190964 546.4195336095581 584.566835228039 549.6113555364082L486.38771486741086 606.2950042138261C480.85986877635355 609.485932823596 474.0492193584122 609.485932823596 468.5213732673548 606.2941108967461L370.3422529067267 549.6104622193282C364.8144068156693 546.4195336095581 361.40908210669863 540.5209609302997 361.40908210669863 534.1382103936796V420.7709130388438C361.40908210669863 414.38816250222374 364.8144068156693 408.48958982296523 370.3422529067267 405.29776789611526L468.5213732673548 348.6141192186973Z " stroke-width="12.181818181818182" stroke="#a1b9ff" fill="none" opacity="0.73" transform="rotate(27.272727272727266, 400, 400)"></path><path d="M441.83190891129965 310.2298099071687C447.89889862815926 306.72766264333177 455.37380644996574 306.72766264333177 461.44079616682535 310.2307903515315L569.1955534133901 372.4429265027751C575.2625431302498 375.9450737666119 578.999997041153 382.41894789402374 578.999997041153 389.42422286606035V513.8484951685475C578.999997041153 520.8537701405842 575.2625431302498 527.327644267996 569.1955534133901 530.8307719761956L461.44079616682535 593.0429081274391C455.37380644996574 596.5450553912762 447.89889862815926 596.5450553912762 441.83190891129965 593.0419276830764L334.0771516647348 530.8297915318328C328.01016194787513 527.327644267996 324.27270803697195 520.8537701405842 324.27270803697195 513.8484951685475V389.42422286606035C324.27270803697195 382.41894789402374 328.01016194787513 375.9450737666119 334.0771516647348 372.4419460584123L441.83190891129965 310.2298099071687Z " stroke-width="13.454545454545455" stroke="#92afff" fill="none" opacity="0.82" transform="rotate(18.181818181818173, 400, 400)"></path><path d="M415.1424598140336 271.8455158544292C421.74859315669556 268.0321499365254 429.887759382367 268.0321499365254 436.49389272502896 271.84658342607474L553.8242868575305 339.58720705114405C560.4304202001924 343.4005729690478 564.5000033130282 350.44974854461293 564.5000033130282 358.077547952066V493.55879520220464C564.5000033130282 501.1865946096578 560.4304202001924 508.23577018522286 553.8242868575305 512.0502036747721L436.49389272502896 579.7908272998416C429.887759382367 583.6041932177452 421.74859315669556 583.6041932177452 415.1424598140336 579.789759728196L297.81206568153203 512.0491361031266C291.20593233887007 508.23577018522286 287.1363492260344 501.1865946096578 287.1363492260344 493.55879520220464V358.077547952066C287.1363492260344 350.44974854461293 291.20593233887007 343.4005729690478 297.81206568153203 339.5861394794985L415.1424598140336 271.8455158544292Z " stroke-width="14.727272727272727" stroke="#80a3ff" fill="none" opacity="0.9099999999999999" transform="rotate(9.09090909090908, 400, 400)"></path><path d="M388.4530107167675 233.46125231926777C395.59828768523175 229.33666774729716 404.40171231476825 229.33666774729716 411.5469892832325 233.46240701819613L538.4530203016707 306.7315181170911C545.5982972701349 310.8561026890618 550.0000095849032 318.48057971278024 550.0000095849032 326.7309035556499V473.2691257534399C550.0000095849032 481.5194495963096 545.5982972701349 489.14392662002797 538.4530203016707 493.26966589092694L411.5469892832325 566.538776989822C404.40171231476825 570.6633615617925 395.59828768523175 570.6633615617925 388.4530107167675 566.5376222908938L261.54697969832927 493.26851119199864C254.401702729865 489.14392662002797 249.99999041509682 481.5194495963096 249.99999041509682 473.2691257534399V326.7309035556499C249.99999041509682 318.48057971278024 254.401702729865 310.8561026890618 261.54697969832927 306.7303634181629L388.4530107167675 233.46125231926777Z " stroke-width="16" stroke="#6b97ff" fill="none" opacity="1" transform="rotate(-1.4210854715202004e-14, 400, 400)"></path></g></svg>