<?xml version="1.0" standalone="no"?>
<!DOCTYPE svg PUBLIC "-//W3C//DTD SVG 20010904//EN"
 "http://www.w3.org/TR/2001/REC-SVG-20010904/DTD/svg10.dtd">
<svg version="1.0" xmlns="http://www.w3.org/2000/svg"
 width="2400.000000pt" height="2400.000000pt" viewBox="0 0 2400.000000 2400.000000"
 preserveAspectRatio="xMidYMid meet">

<g transform="translate(0.000000,2400.000000) scale(0.100000,-0.100000)"
fill="#000000" stroke="none">
<path d="M11455 18243 c-1253 -40 -2383 -649 -3068 -1655 -460 -673 -703
-1495 -685 -2311 1 -86 1 -157 -1 -157 -2 0 -81 16 -175 35 -397 80 -604 100
-1041 100 -386 0 -490 -8 -800 -61 -1093 -187 -2063 -771 -2745 -1652 -185
-240 -326 -466 -470 -754 -249 -498 -389 -983 -452 -1558 -16 -153 -16 -641 0
-800 86 -821 392 -1570 887 -2170 38 -47 133 -150 210 -229 750 -767 1858
-1225 3075 -1270 1341 -50 2672 391 3844 1271 328 247 558 449 902 793 423
422 680 718 1056 1215 401 531 699 981 1166 1760 417 695 607 967 981 1400
165 191 508 533 696 694 1199 1027 2467 1381 3605 1006 462 -152 872 -401
1295 -787 627 -571 998 -1260 1109 -2061 36 -259 39 -628 5 -891 -89 -712
-375 -1374 -836 -1940 -117 -143 -362 -385 -508 -502 -544 -437 -1130 -682
-1840 -770 -131 -17 -550 -17 -690 -1 -60 8 -162 22 -225 33 -1014 172 -2012
805 -2851 1809 -97 116 -280 354 -330 429 -15 24 -15 24 -59 -50 -135 -230
-355 -564 -517 -787 l-104 -142 52 -68 c613 -780 1405 -1433 2234 -1842 1049
-518 2137 -655 3190 -404 678 163 1280 459 1846 911 152 122 514 478 638 628
641 777 1017 1665 1128 2665 24 218 24 725 0 940 -135 1201 -689 2223 -1632
3005 -1024 850 -2376 1242 -3695 1074 -1345 -171 -2502 -935 -3542 -2339 -270
-365 -445 -634 -803 -1235 -300 -504 -505 -833 -694 -1117 -1286 -1932 -2619
-3045 -4106 -3428 -554 -143 -1134 -178 -1620 -99 -621 101 -1183 359 -1644
755 -976 838 -1331 2118 -912 3281 140 390 356 753 652 1099 388 454 845 751
1456 947 709 228 1596 285 2453 156 306 -46 615 -126 725 -188 l50 -28 0 411
c0 422 7 553 46 836 110 795 382 1461 798 1952 347 409 792 708 1261 848 442
131 959 151 1400 54 250 -55 540 -170 750 -298 453 -277 829 -742 1022 -1266
12 -30 22 -56 23 -58 2 -2 83 54 181 124 208 148 551 378 678 455 48 29 90 59
93 65 9 24 -206 429 -310 584 -56 83 -161 224 -231 310 -88 108 -345 365 -456
457 -670 552 -1552 845 -2465 816z"/>
</g>
</svg>
